<?xml version="1.0" encoding="UTF-8"?>
<svg width="48px" height="49px" viewBox="0 0 48 49" version="1.1" xmlns="http://www.w3.org/2000/svg" xmlns:xlink="http://www.w3.org/1999/xlink">
    <!-- Generator: sketchtool 53.2 (72643) - https://sketchapp.com -->
    <title>8EF029A7-71DA-4D43-8D0A-82970F1A1A86</title>
    <desc>Created with sketchtool.</desc>
    <g id="UI" stroke="none" stroke-width="1" fill="none" fill-rule="evenodd">
        <g id="01-Home-page" transform="translate(-20.000000, -18.000000)">
            <g id="top_menu_website">
                <g id="Logo" transform="translate(14.000000, 12.000000)">
                    <g id="Group" transform="translate(6.666667, 6.000000)">
                        <g id="Group-2" transform="translate(0.000000, 35.333333)" fill="#000000">
                            <path d="M5.23087172,4.40969816 L5.23087172,6.45739053 L4.61164096,6.45739053 C3.91164097,6.45739053 3.35548713,6.64380079 2.94241022,7.01662132 C2.52958971,7.38944184 2.32292304,7.94277519 2.32292304,8.67713419 L2.32292304,12.9273907 L0.000102564101,12.9273907 L0.000102564101,4.40969816 L2.13394869,4.40969816 L2.13394869,5.44200588 C2.71882047,4.68508278 3.49882046,4.30662123 4.47394866,4.30662123 C4.76061532,4.30662123 5.01292301,4.3407238 5.23087172,4.40969816" id="Fill-8"></path>
                            <path d="M9.03346135,6.56064674 C8.66628185,6.87039033 8.41397415,7.28910828 8.27628183,7.81680059 L12.1652563,7.81680059 C12.1537179,7.28910828 11.9701281,6.87039033 11.6144871,6.56064674 C11.2591025,6.25090314 10.828846,6.09603135 10.3239742,6.09603135 C9.83064087,6.09603135 9.40064085,6.25090314 9.03346135,6.56064674 M14.2642304,9.4514158 L8.27628179,9.4514158 C8.42551255,9.99064656 8.7093587,10.406544 9.12807664,10.6991081 C9.54679458,10.9914158 10.0660253,11.137826 10.6852561,11.137826 C11.5229484,11.137826 12.3142304,10.8509029 13.0598714,10.2773132 L14.0234611,11.8603901 C13.013974,12.7093644 11.8785894,13.1339798 10.6165381,13.1339798 C9.27423048,13.1339798 8.16166641,12.7065439 7.27833309,11.8519286 C6.39525619,10.9973132 5.95346133,9.9391081 5.95346133,8.67705685 C5.95346133,7.42680048 6.38064081,6.3714159 7.23525617,5.5109031 C8.08987154,4.65064672 9.14807664,4.22039032 10.4101279,4.22039032 C11.5916663,4.22039032 12.5549996,4.59910826 13.3008971,5.35628772 C14.0465381,6.11321078 14.4193586,7.05397998 14.4193586,8.17833892 C14.4193586,8.59115942 14.3678201,9.01551838 14.2642304,9.4514158" id="Fill-10"></path>
                            <path d="M20.4587434,10.9571596 C20.8028459,10.6417749 20.9751536,10.2371596 20.9751536,9.74408263 L20.9751536,9.6407493 L19.1507947,9.6407493 C18.3592562,9.6407493 17.9638716,9.92741597 17.9638716,10.5012621 C17.9638716,10.7879288 18.0754101,11.0145955 18.2992562,11.1807493 C18.522846,11.3471596 18.8182306,11.4302365 19.1851537,11.4302365 C19.6900254,11.4302365 20.1146408,11.2725442 20.4587434,10.9571596 M22.3084873,5.1581853 C22.9679744,5.7833135 23.297718,6.68690323 23.297718,7.86844169 L23.297718,12.927416 L21.1643847,12.927416 L21.1643847,12.1015186 C20.5102821,12.7894673 19.6441282,13.1338263 18.565923,13.1338263 C17.6597692,13.1338263 16.9425897,12.8958775 16.4148973,12.4197237 C15.8874614,11.9438263 15.6236153,11.3328006 15.6236153,10.5871596 C15.6236153,9.81869808 15.912846,9.21331347 16.4923332,8.77177501 C17.0718204,8.33023655 17.854641,8.10946732 18.8410513,8.10946732 L20.9751539,8.10946732 L20.9751539,7.73074938 C20.9751539,7.26049297 20.8400257,6.89331349 20.5705385,6.62946734 C20.3010513,6.36562119 19.9082308,6.2335699 19.3920769,6.2335699 C18.6348974,6.2335699 17.8833589,6.62382631 17.1377179,7.4038263 L15.9333589,5.97562119 C16.9195127,4.8056212 18.1584871,4.220493 19.6500256,4.220493 C20.7628462,4.220493 21.6490001,4.5330571 22.3084873,5.1581853" id="Fill-13"></path>
                            <path d="M31.7462809,4.7797748 C32.3773065,5.15259531 32.8762809,5.66592862 33.2434603,6.31977476 L31.625768,7.57567216 C31.0752552,6.75003116 30.3929475,6.33695424 29.5783321,6.33695424 C28.924486,6.33695424 28.3880757,6.55797988 27.9696142,6.99926192 C27.5508963,7.44105678 27.3411527,7.9946465 27.3411527,8.6600311 C27.3411527,9.33669774 27.5508963,9.8959285 27.9696142,10.3377234 C28.3880757,10.7792618 28.924486,11.0002874 29.5783321,11.0002874 C30.3698706,11.0002874 31.0524347,10.5928516 31.625768,9.77823619 L33.2434603,11.0172105 C32.8762809,11.6713131 32.374486,12.1874669 31.7378193,12.5659284 C31.1011527,12.9446464 30.3698706,13.1338771 29.5437168,13.1338771 C28.2703834,13.1338771 27.1921783,12.7036207 26.308845,11.8433643 C25.4257681,10.9828515 24.9839732,9.92182593 24.9839732,8.6600311 C24.9839732,7.40951831 25.4257681,6.35695424 26.308845,5.50233888 C27.1921783,4.64772353 28.2703834,4.22028764 29.5437168,4.22028764 C30.3814091,4.22028764 31.1155116,4.4069543 31.7462809,4.7797748" id="Fill-15"></path>
                            <path d="M41.8639734,5.15813368 C42.4375632,5.78326186 42.7242298,6.61223619 42.7242298,7.64454383 L42.7242298,12.9273641 L40.4185888,12.9273641 L40.4185888,7.97172331 C40.4185888,7.47838999 40.272435,7.07967206 39.9798709,6.77582592 C39.6873068,6.47172337 39.3057683,6.3196721 38.8355119,6.3196721 C38.3649991,6.3196721 37.9780761,6.47172337 37.6739735,6.77582592 C37.3701273,7.07967206 37.2180761,7.47838999 37.2180761,7.97172331 L37.2180761,12.9273641 L34.8949992,12.9273641 L34.8949992,0.0219800572 L37.2180761,0.0219800572 L37.2180761,5.13223625 C37.8260248,4.52428756 38.6062812,4.22044142 39.5583324,4.22044142 C40.5219222,4.22044142 41.2906401,4.53300551 41.8639734,5.15813368" id="Fill-17"></path>
                            <polygon id="Fill-19" points="44.4668986 11.0072627 44.4668986 12.9298269 46.6481806 12.9298269 46.6481806 11.0070063"></polygon>
                        </g>
                        <polygon id="Fill-1" fill="#78DCFF" points="9.02165222 29.3669348 15.0289052 29.3669348 15.0289052 19.0604509 15.0289052 16.7201212 15.0289052 10.2592419 15.0289052 9.83990119 15.0289052 5.29506588 9.02165222 5.29506588"></polygon>
                        <polygon id="Fill-5" fill="#000000" points="9.02165222 0.000527472509 9.02165222 5.29536253 15.0289052 5.29536253 15.0289052 -0.000131868136"></polygon>
                        <path d="M25.4858498,17.7985381 C27.0870586,16.9977689 28.3483773,15.8768898 29.2674982,14.4385382 C30.1876081,12.9995272 30.6468389,11.3468899 30.6468389,9.47699981 C30.6468389,6.62930756 29.6604653,4.33842848 27.6883773,2.60337357 C25.7149707,0.867329653 23.1712344,-3.29670341e-05 20.0565091,-3.29670341e-05 L15.0287069,-3.29670341e-05 L15.0287069,5.29513176 L20.0565091,5.29480209 C21.4213443,5.29480209 22.5039817,5.68051637 23.3047509,6.45194492 C24.1061795,7.22304381 24.5067289,8.23150533 24.5067289,9.47699981 C24.5067289,10.752824 24.1137619,11.7764503 23.3268388,12.5485382 C22.5409047,13.3196371 21.4510146,13.7043624 20.0565091,13.7043624 L19.3549706,13.7043624 L19.3384871,18.869637 L27.0428828,29.3669994 L33.8060697,29.3669994 L25.4858498,17.7985381 Z" id="Fill-2" fill="#FF645F"></path>
                    </g>
                </g>
            </g>
        </g>
    </g>
</svg>